{
 "cells": [
  {
   "cell_type": "markdown",
   "id": "09f23e4d",
   "metadata": {},
   "source": [
    "# midiAI\n",
    "\n",
    "Let's examine our first `.mid` file, `data/solar.mid`."
   ]
  },
  {
   "cell_type": "code",
   "execution_count": 20,
   "id": "61a462e9",
   "metadata": {},
   "outputs": [
    {
     "name": "stdout",
     "output_type": "stream",
     "text": [
      "MetaMessage('midi_port', port=0, time=0)\n",
      "MetaMessage('track_name', name='Guitar', time=0)\n",
      "program_change channel=3 program=26 time=0\n",
      "control_change channel=3 control=7 value=127 time=0\n",
      "control_change channel=3 control=10 value=67 time=0\n",
      "control_change channel=3 control=91 value=107 time=0\n",
      "control_change channel=3 control=93 value=0 time=0\n",
      "note_on channel=3 note=72 velocity=127 time=92\n",
      "note_on channel=3 note=72 velocity=0 time=151\n",
      "note_on channel=3 note=71 velocity=127 time=10\n",
      "note_on channel=3 note=71 velocity=0 time=46\n",
      "note_on channel=3 note=74 velocity=127 time=64\n",
      "note_on channel=3 note=74 velocity=0 time=71\n",
      "note_on channel=3 note=72 velocity=127 time=16\n",
      "note_on channel=3 note=72 velocity=0 time=57\n",
      "note_on channel=3 note=67 velocity=127 time=65\n",
      "note_on channel=3 note=67 velocity=0 time=344\n",
      "note_on channel=3 note=69 velocity=127 time=8\n",
      "note_on channel=3 note=70 velocity=127 time=55\n",
      "note_on channel=3 note=69 velocity=0 time=8\n",
      "note_on channel=3 note=70 velocity=0 time=61\n",
      "note_on channel=3 note=70 velocity=127 time=39\n",
      "note_on channel=3 note=70 velocity=0 time=37\n",
      "note_on channel=3 note=70 velocity=127 time=37\n",
      "note_on channel=3 note=69 velocity=127 time=58\n",
      "note_on channel=3 note=70 velocity=0 time=5\n",
      "note_on channel=3 note=69 velocity=0 time=76\n",
      "note_on channel=3 note=72 velocity=127 time=22\n",
      "note_on channel=3 note=72 velocity=0 time=88\n",
      "note_on channel=3 note=70 velocity=127 time=6\n",
      "note_on channel=3 note=70 velocity=0 time=545\n",
      "note_on channel=3 note=69 velocity=127 time=56\n",
      "note_on channel=3 note=68 velocity=127 time=161\n",
      "note_on channel=3 note=69 velocity=0 time=1\n",
      "note_on channel=3 note=68 velocity=0 time=78\n",
      "note_on channel=3 note=70 velocity=127 time=28\n",
      "note_on channel=3 note=70 velocity=0 time=53\n",
      "note_on channel=3 note=69 velocity=127 time=28\n",
      "note_on channel=3 note=69 velocity=0 time=117\n",
      "note_on channel=3 note=60 velocity=127 time=19\n",
      "note_on channel=3 note=60 velocity=0 time=255\n",
      "note_on channel=3 note=65 velocity=127 time=12\n",
      "note_on channel=3 note=65 velocity=0 time=51\n",
      "note_on channel=3 note=67 velocity=127 time=12\n",
      "note_on channel=3 note=67 velocity=0 time=54\n",
      "note_on channel=3 note=68 velocity=127 time=10\n",
      "note_on channel=3 note=68 velocity=0 time=65\n",
      "note_on channel=3 note=68 velocity=127 time=43\n",
      "note_on channel=3 note=68 velocity=0 time=41\n",
      "note_on channel=3 note=68 velocity=127 time=29\n",
      "note_on channel=3 note=67 velocity=127 time=64\n",
      "note_on channel=3 note=68 velocity=0 time=3\n",
      "note_on channel=3 note=67 velocity=0 time=72\n",
      "note_on channel=3 note=70 velocity=127 time=26\n",
      "note_on channel=3 note=70 velocity=0 time=65\n",
      "note_on channel=3 note=68 velocity=127 time=25\n",
      "note_on channel=3 note=68 velocity=0 time=433\n",
      "note_on channel=3 note=67 velocity=127 time=48\n",
      "note_on channel=3 note=65 velocity=127 time=164\n",
      "note_on channel=3 note=67 velocity=0 time=4\n",
      "note_on channel=3 note=65 velocity=0 time=62\n",
      "note_on channel=3 note=63 velocity=127 time=9\n",
      "note_on channel=3 note=62 velocity=127 time=65\n",
      "note_on channel=3 note=63 velocity=0 time=4\n",
      "note_on channel=3 note=60 velocity=127 time=75\n",
      "note_on channel=3 note=62 velocity=0 time=1\n",
      "note_on channel=3 note=60 velocity=0 time=84\n",
      "note_on channel=3 note=66 velocity=127 time=10\n",
      "note_on channel=3 note=66 velocity=0 time=161\n",
      "note_on channel=3 note=65 velocity=127 time=2\n",
      "note_on channel=3 note=63 velocity=127 time=74\n",
      "note_on channel=3 note=65 velocity=0 time=2\n",
      "note_on channel=3 note=61 velocity=127 time=61\n",
      "note_on channel=3 note=63 velocity=0 time=4\n",
      "note_on channel=3 note=60 velocity=127 time=77\n",
      "note_on channel=3 note=61 velocity=0 time=9\n",
      "note_on channel=3 note=60 velocity=0 time=65\n",
      "note_on channel=3 note=65 velocity=127 time=32\n",
      "note_on channel=3 note=65 velocity=0 time=500\n",
      "note_on channel=3 note=62 velocity=127 time=75\n",
      "note_on channel=3 note=63 velocity=127 time=55\n",
      "note_on channel=3 note=62 velocity=0 time=4\n",
      "note_on channel=3 note=63 velocity=0 time=49\n",
      "note_on channel=3 note=65 velocity=127 time=17\n",
      "note_on channel=3 note=65 velocity=0 time=43\n",
      "note_on channel=3 note=67 velocity=127 time=7\n",
      "note_on channel=3 note=68 velocity=127 time=69\n",
      "note_on channel=3 note=67 velocity=0 time=1\n",
      "note_on channel=3 note=68 velocity=0 time=48\n",
      "note_on channel=3 note=71 velocity=127 time=1\n",
      "note_on channel=3 note=71 velocity=0 time=123\n",
      "note_on channel=3 note=72 velocity=127 time=17365\n",
      "note_on channel=3 note=72 velocity=0 time=151\n",
      "note_on channel=3 note=71 velocity=127 time=10\n",
      "note_on channel=3 note=71 velocity=0 time=46\n",
      "note_on channel=3 note=74 velocity=127 time=64\n",
      "note_on channel=3 note=74 velocity=0 time=71\n",
      "note_on channel=3 note=72 velocity=127 time=16\n",
      "note_on channel=3 note=72 velocity=0 time=57\n",
      "note_on channel=3 note=67 velocity=127 time=65\n",
      "note_on channel=3 note=67 velocity=0 time=344\n",
      "note_on channel=3 note=69 velocity=127 time=8\n",
      "note_on channel=3 note=70 velocity=127 time=55\n",
      "note_on channel=3 note=69 velocity=0 time=8\n",
      "note_on channel=3 note=70 velocity=0 time=61\n",
      "note_on channel=3 note=70 velocity=127 time=39\n",
      "note_on channel=3 note=70 velocity=0 time=37\n",
      "note_on channel=3 note=70 velocity=127 time=37\n",
      "note_on channel=3 note=69 velocity=127 time=58\n",
      "note_on channel=3 note=70 velocity=0 time=5\n",
      "note_on channel=3 note=69 velocity=0 time=76\n",
      "note_on channel=3 note=72 velocity=127 time=22\n",
      "note_on channel=3 note=72 velocity=0 time=88\n",
      "note_on channel=3 note=70 velocity=127 time=6\n",
      "note_on channel=3 note=70 velocity=0 time=545\n",
      "note_on channel=3 note=69 velocity=127 time=56\n",
      "note_on channel=3 note=68 velocity=127 time=161\n",
      "note_on channel=3 note=69 velocity=0 time=1\n",
      "note_on channel=3 note=68 velocity=0 time=78\n",
      "note_on channel=3 note=70 velocity=127 time=28\n",
      "note_on channel=3 note=70 velocity=0 time=53\n",
      "note_on channel=3 note=69 velocity=127 time=28\n",
      "note_on channel=3 note=69 velocity=0 time=117\n",
      "note_on channel=3 note=60 velocity=127 time=19\n",
      "note_on channel=3 note=60 velocity=0 time=255\n",
      "note_on channel=3 note=65 velocity=127 time=12\n",
      "note_on channel=3 note=65 velocity=0 time=51\n",
      "note_on channel=3 note=67 velocity=127 time=12\n",
      "note_on channel=3 note=67 velocity=0 time=54\n",
      "note_on channel=3 note=68 velocity=127 time=10\n",
      "note_on channel=3 note=68 velocity=0 time=65\n",
      "note_on channel=3 note=68 velocity=127 time=43\n",
      "note_on channel=3 note=68 velocity=0 time=41\n",
      "note_on channel=3 note=68 velocity=127 time=29\n",
      "note_on channel=3 note=67 velocity=127 time=64\n",
      "note_on channel=3 note=68 velocity=0 time=3\n",
      "note_on channel=3 note=67 velocity=0 time=72\n",
      "note_on channel=3 note=70 velocity=127 time=26\n",
      "note_on channel=3 note=70 velocity=0 time=65\n",
      "note_on channel=3 note=68 velocity=127 time=25\n",
      "note_on channel=3 note=68 velocity=0 time=433\n",
      "note_on channel=3 note=67 velocity=127 time=48\n",
      "note_on channel=3 note=65 velocity=127 time=164\n",
      "note_on channel=3 note=67 velocity=0 time=4\n",
      "note_on channel=3 note=65 velocity=0 time=62\n",
      "note_on channel=3 note=63 velocity=127 time=9\n",
      "note_on channel=3 note=62 velocity=127 time=65\n",
      "note_on channel=3 note=63 velocity=0 time=4\n",
      "note_on channel=3 note=60 velocity=127 time=75\n",
      "note_on channel=3 note=62 velocity=0 time=1\n",
      "note_on channel=3 note=60 velocity=0 time=84\n",
      "note_on channel=3 note=66 velocity=127 time=10\n",
      "note_on channel=3 note=66 velocity=0 time=161\n",
      "note_on channel=3 note=65 velocity=127 time=2\n",
      "note_on channel=3 note=63 velocity=127 time=74\n",
      "note_on channel=3 note=65 velocity=0 time=2\n",
      "note_on channel=3 note=61 velocity=127 time=61\n",
      "note_on channel=3 note=63 velocity=0 time=4\n",
      "note_on channel=3 note=60 velocity=127 time=77\n",
      "note_on channel=3 note=61 velocity=0 time=9\n",
      "note_on channel=3 note=60 velocity=0 time=65\n",
      "note_on channel=3 note=65 velocity=127 time=32\n",
      "note_on channel=3 note=65 velocity=0 time=500\n",
      "note_on channel=3 note=62 velocity=127 time=75\n",
      "note_on channel=3 note=63 velocity=127 time=55\n",
      "note_on channel=3 note=62 velocity=0 time=4\n",
      "note_on channel=3 note=63 velocity=0 time=49\n",
      "note_on channel=3 note=65 velocity=127 time=17\n",
      "note_on channel=3 note=65 velocity=0 time=43\n",
      "note_on channel=3 note=67 velocity=127 time=7\n",
      "note_on channel=3 note=68 velocity=127 time=69\n",
      "note_on channel=3 note=67 velocity=0 time=1\n",
      "note_on channel=3 note=68 velocity=0 time=48\n",
      "note_on channel=3 note=71 velocity=127 time=1\n",
      "note_on channel=3 note=71 velocity=0 time=123\n",
      "note_on channel=3 note=74 velocity=127 time=9\n",
      "note_on channel=3 note=74 velocity=0 time=945\n",
      "MetaMessage('end_of_track', time=0)\n"
     ]
    },
    {
     "ename": "ValueError",
     "evalue": "list.remove(x): x not in list",
     "output_type": "error",
     "traceback": [
      "\u001b[31m---------------------------------------------------------------------------\u001b[39m",
      "\u001b[31mValueError\u001b[39m                                Traceback (most recent call last)",
      "\u001b[36mCell\u001b[39m\u001b[36m \u001b[39m\u001b[32mIn[20]\u001b[39m\u001b[32m, line 11\u001b[39m\n\u001b[32m      9\u001b[39m \u001b[38;5;28;01mfor\u001b[39;00m track \u001b[38;5;129;01min\u001b[39;00m \u001b[38;5;28mrange\u001b[39m(\u001b[32m0\u001b[39m, \u001b[38;5;28mlen\u001b[39m(mid.tracks)):\n\u001b[32m     10\u001b[39m \t\u001b[38;5;28;01mif\u001b[39;00m track != \u001b[32m4\u001b[39m:\n\u001b[32m---> \u001b[39m\u001b[32m11\u001b[39m \t\t\u001b[43mmid\u001b[49m\u001b[43m.\u001b[49m\u001b[43mtracks\u001b[49m\u001b[43m.\u001b[49m\u001b[43mremove\u001b[49m\u001b[43m(\u001b[49m\u001b[43mtrack\u001b[49m\u001b[43m)\u001b[49m\n\u001b[32m     13\u001b[39m \u001b[38;5;28mprint\u001b[39m(mid)\n",
      "\u001b[31mValueError\u001b[39m: list.remove(x): x not in list"
     ]
    }
   ],
   "source": [
    "import os\n",
    "from mido import MidiFile\n",
    "\n",
    "mid = MidiFile(\"data/solar.mid\", clip=True)\n",
    "\n",
    "for msg in mid.tracks[4]:\n",
    "\tprint(msg)\n",
    "\n",
    "for track in range(0, len(mid.tracks)):\n",
    "\tif track != 4:\n",
    "\t\tmid.tracks.remove(track)\n",
    "\n",
    "print(mid)"
   ]
  }
 ],
 "metadata": {
  "kernelspec": {
   "display_name": ".venv",
   "language": "python",
   "name": "python3"
  },
  "language_info": {
   "codemirror_mode": {
    "name": "ipython",
    "version": 3
   },
   "file_extension": ".py",
   "mimetype": "text/x-python",
   "name": "python",
   "nbconvert_exporter": "python",
   "pygments_lexer": "ipython3",
   "version": "3.13.2"
  }
 },
 "nbformat": 4,
 "nbformat_minor": 5
}
